# xmcd
# 
# Track frame offsets:
#     150
#     21957
#     42685
#     64370
#     89965
#     109937
#     123742
#     144015
#     160157
#     173997
#     192547
#     213592
# 
# Disc length: 3107
# 
# Revision: 0
# Processed by: cddbd v1.5.2PL0 Copyright (c) Steve Scherf et al.
# Submitted via: BonkEnc v1.0.6
# 
DISCID=bf0c210c
DTITLE=Daniel and Samuel - Semelhança
DYEAR=2002
DGENRE=Gospel
TTITLE0=Semelhança
TTITLE1=Lágrimas
TTITLE2=O Amor de Jesus
TTITLE3=A Volta do Senhor
TTITLE4=Deus Prova
TTITLE5=Vai Gideão
TTITLE6=O Mesmo Deus
TTITLE7=Dicionário de Deus
TTITLE8=Caravana do Céu
TTITLE9=Somos Assim
TTITLE10=Abraão e Isaque
TTITLE11=Filho
EXTD=
EXTT0=
EXTT1=
EXTT2=
EXTT3=
EXTT4=
EXTT5=
EXTT6=
EXTT7=
EXTT8=
EXTT9=
EXTT10=
EXTT11=
PLAYORDER=
